<?xml version="1.0" encoding="UTF-8"?><svg id="Layer_2" xmlns="http://www.w3.org/2000/svg" width="151.75" height="170.42" viewBox="0 0 151.75 170.42"><defs><style>.cls-1{fill:#77b253;}.cls-1,.cls-2{stroke-width:0px;}.cls-2{fill:#d93147;}</style></defs><g id="Layer_1-2"><path class="cls-2" d="M138.47,64.95c6.08,22.84-.15,48.04-12.88,67.81-9.35,14.58-23.16,26.96-39.23,33-21.06,8.22-46.48,5.5-64.97-7.61-4.33-3.07-13.66-10.19-18.22-23.1-3.12-8.83-6.26-26.82,2.81-35.34,12.27-11.53,33.31,6.99,51.21-4.89,8.88-5.89,3.89-10.58,20.19-31.18,10.99-13.89,19.75-20.01,29.22-22.54,3.51-.94,7.39-1.92,12.02-.84,14.41,3.37,19.42,22.9,19.85,24.7Z"/><path class="cls-1" d="M144.97,83.3c-8.5-1.88-14.28-7.25-18.98-13.92-1.61-2.28-2.21-2.65-4.95-1.66-2.86,1.03-5.53,2.52-8.6,3.07-3.77.67-6.94-.39-9.7-2.82-2.02-1.77-3.61-3.89-4.8-6.22-1.09-2.14-2.85-2.97-5.16-3.24-3.68-.43-7.34.02-11,.18-2.54.12-5.08.25-7.63.23-.29-.08-.56-.2-.86-.25-5.84-.89-7.59-3.54-5.77-8.95,1.67-4.98,5.32-8.5,9.57-11.45,10.46-7.24,22.14-9.12,34.62-6.85,2.19.4,2.54-.08,2.36-2.03-.51-5.49-3.12-10.03-6.56-14.23-2.42-2.96-5.28-5.53-8.01-8.22-2.37-2.34-2.1-3.86.95-5.23,10.13-4.55,21.15.22,24.4,10.5,2.22,7.05,2.21,14.26,1.65,21.49-.11,1.46.29,2,1.6,2.53,3.89,1.56,7.51,3.59,10.79,6.17,7.84,6.18,11.5,14.4,12.49,23.9.36,3.45.59,6.91.03,10.38-.67,4.14-2.28,5.87-6.44,6.61Z"/></g></svg>