<?xml version="1.0" encoding="UTF-8"?><svg id="Layer_2" xmlns="http://www.w3.org/2000/svg" width="151.75" height="170.42" viewBox="0 0 151.75 170.42"><defs><style>.cls-1{fill:#77b253;}.cls-1,.cls-2{stroke-width:0px;}.cls-2{fill:#d93147;}</style></defs><g id="Layer_1-2"><path class="cls-1" d="M108.33,6h0c5.03,0,9.27,3.15,10.81,8.03,2.04,6.46,1.85,13.34,1.39,19.22-.31,4.01,1.59,7.05,5.35,8.56,3.47,1.39,6.6,3.18,9.31,5.31,5.99,4.72,9.34,11.2,10.23,19.81.35,3.38.5,6.17.07,8.81-.12.75-.25,1.15-.32,1.33-.04.02-.09.04-.15.06-5.36-1.52-9.76-5.03-14.12-11.2-1.08-1.53-3.33-4.72-7.67-4.72-1.58,0-3.02.44-4.22.87-1.09.39-2.1.82-3.08,1.23-1.69.71-3.14,1.33-4.54,1.58-.39.07-.76.1-1.11.1-.85,0-2.03-.17-3.57-1.53-1.39-1.22-2.54-2.72-3.43-4.45-1.92-3.75-5.22-5.93-9.81-6.46-1.28-.15-2.61-.22-4.08-.22-1.84,0-3.61.11-5.33.22-.85.05-1.7.11-2.56.15l-.94.04c-1.91.09-3.71.17-5.51.18-.25-.07-.54-.13-.86-.18-.53-.08-.93-.17-1.23-.25.06-.23.14-.52.25-.86,1.02-3.04,3.27-5.64,7.3-8.43,6.5-4.5,13.53-6.69,21.5-6.69,2.76,0,5.66.27,8.62.81.85.16,1.56.23,2.23.23,2.75,0,4.45-1.23,5.39-2.27,2.16-2.37,1.89-5.33,1.78-6.45-.74-7.92-4.85-13.77-7.89-17.47-1.58-1.93-3.27-3.66-4.96-5.32.37-.03.75-.05,1.12-.05M108.33,0c-2.58,0-5.25.55-7.86,1.72-3.05,1.37-3.33,2.89-.95,5.23,2.73,2.69,5.59,5.25,8.01,8.22,3.44,4.2,6.05,8.74,6.56,14.23.14,1.54-.05,2.16-1.2,2.16-.31,0-.69-.05-1.16-.13-3.29-.6-6.53-.91-9.7-.91-8.86,0-17.22,2.42-24.92,7.76-4.25,2.95-7.9,6.47-9.57,11.45-1.82,5.41-.07,8.07,5.77,8.95.29.04.57.16.86.25.18,0,.36,0,.55,0,2.36,0,4.72-.13,7.08-.23,2.53-.12,5.07-.37,7.61-.37,1.13,0,2.26.05,3.39.18,2.32.27,4.07,1.1,5.16,3.24,1.2,2.34,2.79,4.45,4.8,6.22,2.22,1.95,4.69,3.02,7.53,3.02.7,0,1.42-.07,2.17-.2,3.06-.55,5.74-2.04,8.6-3.07.94-.34,1.62-.52,2.18-.52,1.09,0,1.71.67,2.77,2.18,4.7,6.66,10.48,12.04,18.98,13.92,4.17-.74,5.78-2.47,6.44-6.61.56-3.47.33-6.93-.03-10.38-.99-9.5-4.65-17.72-12.49-23.9-3.27-2.58-6.9-4.61-10.79-6.17-1.31-.52-1.71-1.07-1.6-2.53.56-7.23.57-14.44-1.65-21.49C122.46,4.59,115.76,0,108.33,0h0Z"/><path class="cls-2" d="M89.39,64.33h0c1,0,1.88.05,2.69.14.27.03.45.07.56.1,1.57,3.05,3.64,5.71,6.14,7.91,3.41,3,7.27,4.52,11.49,4.52,1.05,0,2.14-.1,3.22-.29,2.72-.49,5.05-1.47,7.1-2.34.42-.18.83-.35,1.22-.51,3.98,5.42,8.18,9.3,12.95,11.94-.5,14.76-5.49,30.14-14.24,43.72-9.26,14.44-22.15,25.31-36.29,30.63h-.04s-.04.03-.04.03c-7.22,2.82-14.98,4.25-23.04,4.25-13.23,0-26.12-3.97-36.28-11.17-2.93-2.08-11.86-8.41-16.03-20.21-2.85-8.06-5.03-23.06,1.26-28.97,1.74-1.63,3.84-2.33,7.01-2.33,3.09,0,6.74.69,10.6,1.42,4.72.89,9.61,1.82,14.79,1.82,6.89,0,12.78-1.69,18.02-5.17,5.75-3.82,7.39-7.69,9.28-12.17,1.82-4.3,4.3-10.18,12.3-20.29.76-.96,1.52-1.9,2.27-2.79.16-.01.32-.02.49-.03,1.59-.1,3.1-.2,4.56-.2M89.39,58.33c-2.54,0-5.08.25-7.61.37-.11,0-.22.01-.33.02-1.33,1.52-2.69,3.16-4.08,4.92-16.29,20.61-11.31,25.29-20.19,31.18-4.75,3.16-9.73,4.17-14.7,4.17-8.89,0-17.78-3.24-25.39-3.24-4.16,0-7.93.97-11.12,3.96C-3.09,108.23.05,126.21,3.17,135.05c4.56,12.91,13.89,20.03,18.22,23.1,11.48,8.14,25.63,12.27,39.75,12.27,8.62,0,17.24-1.54,25.22-4.66,16.07-6.04,29.87-18.42,39.23-33,9.62-14.93,15.52-32.96,15.22-50.73-6.29-2.5-10.92-7.13-14.81-12.64-1.06-1.5-1.68-2.18-2.77-2.18-.56,0-1.25.18-2.18.52-2.86,1.03-5.53,2.52-8.6,3.07-.75.13-1.47.2-2.17.2-2.84,0-5.31-1.07-7.53-3.02-2.02-1.77-3.61-3.89-4.8-6.22-1.09-2.14-2.85-2.97-5.16-3.24-1.13-.13-2.26-.18-3.39-.18h0Z"/></g></svg>