<?xml version="1.0" encoding="UTF-8"?>
<svg id="Layer_1" data-name="Layer 1" xmlns="http://www.w3.org/2000/svg" viewBox="0 0 200.39 75.54">
  <defs>
    <style>
      .cls-1 {
        fill: #fff;
      }

      .cls-1, .cls-2 {
        stroke: blue;
        stroke-miterlimit: 10;
      }

      .cls-2 {
        fill: blue;
      }
    </style>
  </defs>
  <path class="cls-1" d="M198.35,49.41c-.88-3.11-3.15-5.59-6.25-6.82l-.25-.1-.26-.09c-.2-.07-.39-.12-.59-.18-.81-.68-1.73-1.25-2.74-1.7-1.58-.71-3.29-1.07-5.08-1.07-.37,0-.74.02-1.12.05,1.18-2.43,1.72-4.86,1.36-7.47-.46-3.32-2.36-6.23-5.16-7.93-1.74-1.08-3.76-1.65-5.85-1.65-2.32,0-4.72.59-7.69,2.55-.49-.39-1-.76-1.56-1.08-1.6-.9-3.42-1.37-5.28-1.37-.86,0-2.1,0-3.83.64.23-1.35.23-2.72-.04-4.12-.68-3.49-2.92-6.34-6.16-7.83l-.16-.07c-1.39-.61-2.87-.92-4.41-.92-6.7,0-11.41,5.31-19.63,15.89-1.39.16-2.79.55-4.19,1.12-.04-.02-.08-.04-.12-.06-.92-.99-2.03-1.8-3.29-2.38-1.38-.64-2.85-.96-4.38-.96-2.77,0-5.02,1.03-6.77,2.35-.95-.23-1.94-.35-2.95-.35-1.79,0-3.53.37-5.18,1-1.35-.58-2.77-.88-4.25-.88-.92,0-1.82.12-2.7.34-.29-.03-.59-.04-.89-.04-.36,0-.72.02-1.08.06-.47-.06-.94-.1-1.42-.1-.93,0-1.84.12-2.71.36-.58-.1-1.18-.15-1.78-.15-.33,0-.65.02-.98.05-.43-.06-.87-.08-1.31-.08-.58,0-1.15.07-1.72.16-.35-.29-.72-.56-1.12-.8l-.17-.1c-1.7-1.01-3.64-1.54-5.61-1.54-1.48,0-3.28.29-5.16,1.26-1.56-.81-3.29-1.26-5.05-1.26-1.38,0-3.04.25-4.77,1.07.94-2.39,1.58-4.96,1.58-7.56,0-4.14-1.59-7.83-4.45-10.35-2.26-2.01-5.19-3.07-8.46-3.07-4.95,0-10.54,2.53-15.23,5.36-1.46-.26-2.97-.39-4.5-.39-1.12,0-2.24.07-3.5.22C10.86,10.77,3.02,17.83,2.45,26.65c-.26,4.54,1.23,8.76,3.99,12.02-.15,1.12-.23,2.25-.23,3.37,0,7.41,3.24,13.73,8.47,16.5,2.17,1.15,4.65,1.75,7.18,1.75,2.78,0,5.34-.7,7.55-1.62.05.02.09.04.13.06,1.51.65,3.12.97,4.79.97,1.46,0,2.82-.25,4.08-.66.02,0,.04.02.06.03,1.47.57,3.04.87,4.67.87,1.99,0,4-.45,5.95-1.29,1.67.75,3.54,1.15,5.49,1.15,1.77,0,3.56-.33,5.26-.93,1.53.6,3.21.93,4.95.93,1.87,0,3.77-.37,5.55-1.04.26.12.52.23.79.33l.2.07.2.07c1.15.37,2.34.55,3.54.55s2.41-.2,3.45-.52c1.11.36,2.28.54,3.46.54h0c2.25,0,4.25-.65,6-1.57.55.32,1.14.61,1.75.84,1.47.57,3.04.87,4.67.87,2.66,0,5.34-.79,7.88-2.27.62.41,1.29.77,2,1.07,1.51.65,3.12.97,4.79.97,1.41,0,2.72-.24,3.94-.62,1.32.51,2.71.78,4.14.78,1.06,0,2.05-.14,2.98-.37,1.14.38,2.33.57,3.56.57,1.03,0,2.05-.14,3.08-.41-.03.41-.06.82-.06,1.22,0,4.83,2.49,9.02,6.66,11.22l.29.15c1.64.8,3.46,1.2,5.39,1.2h0c2.24,0,4.55-.57,6.79-1.59,1.8,1,3.83,1.55,5.9,1.55,1.58,0,3.03-.29,4.37-.76,1.33.5,2.75.76,4.17.76,1.23,0,2.38-.18,3.45-.49,1.09.33,2.24.49,3.38.49,1.46,0,2.81-.26,4.05-.69l.06.02c1.26.42,2.58.63,3.94.63,6.07,0,11.73-4.38,15.41-8.06,1.58-1.58,3.45-3.71,5.7-6.51l.23-.29.15-.21c1.92-2.57,2.53-5.8,1.66-8.87Z"/>
  <g>
    <path class="cls-2" d="M158.88,33.88c0,1.92-2.23,5.47-5.01,8.52-3.1,3.46-7.02,7.11-9.98,8.71-3.42,5.93-6.06,11.21-5.24,11.67,1,.55,3.69-1.09,6.15-4.6.32-.41.59-.87.87-1.28-.59-.64-.82-1.5-.82-2.42,0-.68.14-1.41.37-2.1.55-1.5,1.59-2.55,3.01-2.14.68.23,1.05.91,1.05,1.96,0,1.19-.5,2.87-1.59,4.83,1.14.04,2.42-.37,3.65-1.32,1.37-1.14,2.32-2.64,2.96-3.6.18-.23.37-.32.5-.23.18.04.27.27.09.59-.32.59-1.55,2.51-3.1,3.78-.91.68-2.87,1.69-4.51,1.46-.14.18-.23.36-.37.55-2.96,4.28-7.25,5.74-8.84,4.97-.87-.46-1.32-1.23-1.32-2.37,0-2.6,2.23-6.97,6.75-13.35,5.47-7.7,12.94-15.91,14.81-14.86.41.23.59.68.59,1.23ZM145.93,47.64c-.46.78-.91,1.55-1.37,2.33,1.6-1.05,4.6-3.33,7.43-6.97,3.78-4.79,5.88-8.52,5.06-9.21s-6.84,6.65-11.12,13.86ZM145.75,52.84c-.14.41-.18.91-.18,1.46,0,.68.14,1.37.5,1.92,1.64-2.78,2.6-5.15,1.82-5.52-.82-.32-1.78.87-2.14,2.14Z"/>
    <path class="cls-2" d="M166.21,43.72c-4.33,4.56-6.7,6.52-9.07,7.7-3.78,5.92-6.2,10.57-5.47,11.08.96.68,3.74-1.78,5.79-3.96,2-2.14,5.15-6.11,5.42-6.47.14-.18.46-.23.59-.14.14.09.23.27,0,.55-.41.59-3.87,4.83-5.38,6.38-1.5,1.59-5.06,5.65-7.43,4.24-.78-.46-1.19-1.18-1.19-2.19,0-2.6,2.64-7.06,7.75-13.67,7.7-9.94,13.86-15.82,15.77-14.63,2.1,1.28-2.37,6.38-6.79,11.12ZM159.88,47.28c-.59.87-1.14,1.69-1.64,2.51,1.55-.91,3.83-2.73,6.24-5.42,3.97-4.42,8.02-9.98,7.02-10.67-1.05-.73-6.29,5.79-11.62,13.58Z"/>
    <path class="cls-2" d="M172.91,59.08c-2.23,2.46-4.79,5.06-6.61,4.1-1.09-.55-1.37-1.69-1.14-3.1-2,2.1-4.1,3.92-5.7,3.1-.82-.46-1.18-1.18-1.18-2.19,0-1.37.68-3.1,1.78-5.01,1.37-2.32,3.83-5.47,4.1-5.79.23-.32.41-.46.64-.32s1.41.09,1.87-.05c.41-.14.59.18.41.41-.18.23-2.28,3.55-4.15,6.33-1.91,2.78-3.65,5.56-2.73,6.15.96.55,4.01-2.23,5.83-5.15,2.14-3.42,3.51-5.42,4.92-7.38.23-.32.41-.46.68-.32.23.14,1.37.09,1.82-.05.41-.14.59.18.41.41-.18.23-2.23,3.55-4.15,6.33-1.87,2.78-3.65,5.56-2.69,6.15.91.55,3.33-1.92,5.33-4.01,2.05-2.14,5.47-6.43,5.65-6.7.14-.14.36-.18.5-.09.18.05.27.27.05.59-.27.37-3.37,4.1-5.65,6.56Z"/>
    <path class="cls-2" d="M183.53,58.21c-2.19,2.19-6.65,5.83-9.12,5.01-1.23-.46-1.96-1.5-1.96-2.92s.68-3.05,2.1-4.92c2.96-3.83,7.47-6.75,9.62-5.74.64.27.91.82.91,1.46,0,1.23-1.05,2.83-2.46,3.92-1.64,1.28-4.38,2.46-6.43,2.55-1.37,2.42-2.05,4.42-1.28,4.97.96.68,4.79-1.46,8.3-5.01,3.24-3.28,4.56-5.33,4.79-5.56.09-.09.27-.14.41-.09.23.09.41.23.27.41-.23.27-2.92,3.69-5.15,5.92ZM177.56,55.43c-.36.5-.68,1-.96,1.5,2.01,0,4.19-1.91,5.52-3.24,1.14-1.14,2.46-2.92,1.64-3.51s-3.97,1.96-6.2,5.24Z"/>
  </g>
  <g>
    <path class="cls-2" d="M47.66,17.64c0,3.46-2.83,8.61-6.66,12.81-4.19,4.56-8.84,7.2-11.53,7.2-.64,0-1.14-.18-1.55-.46-.73-.55-1-1.5-.87-2.73-1.28.32-2.6.59-4.01.64-2.96,5.15-4.33,8.66-4.33,10.94,0,1.46.55,2.37,1.55,2.92.59.32,1.18.41,1.87.41,2.83,0,6.24-2.37,8.02-3.69,2.14-1.69,3.92-3.14,4.47-3.6.32-.32.59-.32.68-.14.05.14-.04.36-.27.59-.55.64-3.42,3.33-6.06,5.06-2,1.28-4.65,2.69-7.11,2.69-.87,0-1.73-.18-2.51-.59-1.55-.82-3.14-3.69-3.14-7.66,0-2.19.5-4.69,1.73-7.38-3.92-1.18-5.7-4.24-5.51-7.43.23-3.51,4.28-7.11,10.35-7.88.77-.09,1.5-.14,2.23-.14,2.55,0,4.6.59,6.11,1.28,5.33-3.74,10.67-6.24,13.63-6.24.77,0,1.41.18,1.82.55.78.68,1.09,1.69,1.09,2.87ZM24.69,20.15c-.59,0-1.19,0-1.82.09-5.29.64-9.84,4.24-9.62,7.98.14,1.91,1.73,4.38,5.2,5.47.77-1.5,1.82-3.1,3.19-4.69,2.46-2.87,5.42-5.51,8.48-7.79-1.37-.59-3.19-1.05-5.42-1.05ZM44.34,15.23c-2.37,0-6.7,2.1-11.26,6.43.23.23.41.36.55.5.41.46.46.78.36.91-.14.18-.5.09-.91-.23-.14-.09-.37-.27-.73-.46-2.1,2.05-4.19,4.65-6.15,7.7-1,1.46-1.82,2.83-2.6,4.1.36,0,.73-.05,1.14-.09.87-.09,1.69-.27,2.51-.5.5-2.19,2.14-5.06,4.79-8.07,4.38-5.01,8.66-6.61,9.94-5.79,1.46,1-.68,5.29-4.97,9.07-2.69,2.37-5.74,4.33-9.16,5.42-.18.96-.09,1.73.5,2.23,2.19,1.78,8.25-2.96,12.49-7.88,3.24-3.78,5.65-8.2,5.65-10.94,0-.82-.23-1.55-.73-2.01-.32-.27-.82-.41-1.41-.41ZM32.71,26.03c-1.41,1.6-3.78,4.79-4.6,7.29,5.7-1.96,9.66-6.43,10.85-7.93,1.46-1.73,3.01-4.19,2.32-4.83-1.18-1.05-6.43,2.96-8.57,5.47Z"/>
    <path class="cls-2" d="M40.42,45.63c-1.87,1.87-4.83,4.83-6.97,3.87-.91-.36-1.23-1.09-1.23-1.96,0-1.28.73-2.83,1.5-3.96,1.37-1.91,4.01-4.79,3.51-5.15-.5-.36-2.32,1.05-3.05.59-.73-.41-.36-1.69.46-3.01.68-1.14,1.91-2.37,2.51-2.1s.36,1.41-.14,2.1c-.46.64-.87,1.19-.73,1.41.09.14,1.14-.32,1.91-.64.82-.41,1.92-.82,2.55-.32.59.46.36,1.91-.73,3.28-1.09,1.37-3.87,4.97-4.88,6.43-.96,1.41-1.46,2.42-.82,2.78,1.05.59,4.1-1.96,7.02-5.29,2.92-3.37,4.01-4.92,4.28-5.2.23-.32.91-.05.46.5-.46.55-3.83,4.74-5.65,6.65Z"/>
    <path class="cls-2" d="M56.14,41.39c-.73.73-2.78,2.83-5.11,2.87h-.27c-.14.23-.23.41-.41.59-2.92,4.01-6.29,5.65-8.25,4.88-.96-.37-1.46-1.37-1.46-2.69,0-1.5.68-3.51,2.14-5.56,2.73-3.83,7.02-6.43,8.93-5.38.77.41,1.18,1.28,1.18,2.46,0,1.37-.55,3.19-1.73,5.1,1.41-.09,2.69-.87,3.78-1.87,1.09-1.05,2.01-2.28,2.74-3.33.32-.41.77-.18.68-.05-.14.36-1.28,1.91-2.23,2.96ZM45.57,41.98c-2.1,3.01-4.01,6.79-2.78,7.48,1.28.64,4.38-2.1,6.43-5.2.04-.09.09-.14.14-.23-1.19-.46-1.55-1.46-1.55-2.33-.05-1,.64-2.05,1.37-1.91.36.09.64.55.59.96-.05.68-.5,1.05-.87,1.05-.32-.05-.36-.27-.55-.09-.14.09-.23.37.04.91.23.41.73.68,1.32.87,1.82-2.92,3.24-6.15,1.96-6.88-1.37-.77-3.69,2.01-6.11,5.38Z"/>
    <path class="cls-2" d="M64.8,43.08c-1.46,1.37-3.14,2.37-4.69,3.01-.36.77-.91,1.59-1.73,2.28-1.14.96-2.6,1.41-3.78,1.41-.82,0-1.5-.23-1.92-.59-.41-.37-.68-.91-.68-1.6,0-.82.41-1.87,1.32-3.19.46-.64,1.14-.41,1.28.14s.36.91.77,1.23c.36.32,1.14.5,1.32.5s.27-.09.41-.27c.18-.23,1-1.41,1.23-3.24.36-2.87-.82-3.33-.73-4.33.05-.96.5-1.55,1-2.37.68-1.05,1.78-2.37,2.78-1.78.96.59.04,1.46-.46,2.05-.46.55-1.09,1.09-1.18,1.78-.14,1.19,1.05,2.83,1,4.6,0,.68-.04,1.55-.32,2.46,1.09-.5,2.6-1.32,3.78-2.42,1.96-1.78,3.42-3.92,3.69-4.28.27-.32.87.04.55.46-.64.91-2.69,3.24-3.65,4.15ZM54.77,46.22c-.27-.23-.64-.77-.73-.96-.09-.18-.18-.05-.27.05-.09.04-.5.41-.91,1.28-.41.91-.14,1.96.46,2.33.55.32,1.32.14,2.05-.55.46-.46,1.05-1.28.82-1.37-.27-.04-1.14-.5-1.41-.77Z"/>
    <path class="cls-2" d="M75.01,43.08c-1.46,1.37-3.14,2.37-4.7,3.01-.36.77-.91,1.59-1.73,2.28-1.14.96-2.6,1.41-3.78,1.41-.82,0-1.5-.23-1.91-.59-.41-.37-.68-.91-.68-1.6,0-.82.41-1.87,1.32-3.19.46-.64,1.14-.41,1.28.14s.37.91.78,1.23c.36.32,1.14.5,1.32.5s.27-.09.41-.27c.18-.23,1-1.41,1.23-3.24.37-2.87-.82-3.33-.73-4.33.05-.96.5-1.55,1-2.37.68-1.05,1.78-2.37,2.78-1.78.96.59.05,1.46-.46,2.05-.46.55-1.09,1.09-1.19,1.78-.14,1.19,1.05,2.83,1,4.6,0,.68-.05,1.55-.32,2.46,1.09-.5,2.6-1.32,3.78-2.42,1.96-1.78,3.42-3.92,3.69-4.28.27-.32.87.04.55.46-.64.91-2.69,3.24-3.65,4.15ZM64.98,46.22c-.27-.23-.64-.77-.73-.96s-.18-.05-.27.05c-.09.04-.5.41-.91,1.28-.41.91-.14,1.96.46,2.33.55.32,1.32.14,2.05-.55.46-.46,1.05-1.28.82-1.37-.27-.04-1.14-.5-1.41-.77Z"/>
    <path class="cls-2" d="M94.29,42.39c-.55.36-1.46.59-2.28.59-.64,0-1.23-.14-1.55-.46-1.05,1.32-2.23,2.73-3.37,3.83-2.05,1.96-4.24,3.87-5.61,3.33-.96-.36-1.28-1.23-1.28-2.28,0-.59.09-1.18.27-1.82.09-.37-.05-.37-.23-.14-.32.46-1.32,1.64-2.19,2.51-.82.78-2.19,2.14-3.46,1.73-.87-.32-1.32-1.14-1.32-2.23,0-.55.09-1.14.32-1.73.77-2.37,5.33-8.57,5.56-8.89.23-.37.46-.5.73-.37s1.37.14,1.78.05c.41-.14.68-.05.41.36-.27.37-2.55,3.65-4.1,5.88-1.5,2.28-3.96,5.56-2.96,6.24.87.59,3.69-2.37,6.52-6.11,2.87-3.69,4.38-6.15,4.56-6.38.18-.27.32-.32.59-.23.23.09,1.55.14,2.01.05.46-.14.64.05.41.32-.23.32-2.32,3.42-3.96,5.79-1.69,2.37-4.24,6.2-3.33,6.79.96.59,4.15-2.46,5.74-4.28,1.6-1.82,1.96-2.46,2.05-2.6.09-.09.23-.37.18-.5-.09-.18-.41-1.91.41-3.51.78-1.6,1.91-2.64,2.69-2.28.77.32.55,1.73-.5,3.6-.36.68-.82,1.37-1.41,2.19.68.59,2.28.37,3.51-.5.91-.64,2.01-2.1,2.37-2.78.14-.32.41-.32.55-.23.09.09.14.32.05.5-.68,1.37-2.01,2.87-3.14,3.56Z"/>
    <path class="cls-2" d="M107.41,41.39c-.73.73-2.78,2.83-5.1,2.87h-.27c-.14.23-.23.41-.41.59-2.92,4.01-6.29,5.65-8.25,4.88-.96-.37-1.46-1.37-1.46-2.69,0-1.5.68-3.51,2.14-5.56,2.73-3.83,7.02-6.43,8.93-5.38.77.41,1.18,1.28,1.18,2.46,0,1.37-.55,3.19-1.73,5.1,1.41-.09,2.69-.87,3.78-1.87,1.09-1.05,2.01-2.28,2.74-3.33.32-.41.77-.18.68-.05-.14.36-1.28,1.91-2.23,2.96ZM96.84,41.98c-2.1,3.01-4.01,6.79-2.78,7.48,1.28.64,4.38-2.1,6.43-5.2.04-.09.09-.14.14-.23-1.19-.46-1.55-1.46-1.55-2.33-.05-1,.64-2.05,1.37-1.91.37.09.64.55.59.96-.05.68-.5,1.05-.87,1.05-.32-.05-.36-.27-.55-.09-.14.09-.23.37.05.91.23.41.73.68,1.32.87,1.82-2.92,3.24-6.15,1.96-6.88-1.37-.77-3.69,2.01-6.11,5.38Z"/>
    <path class="cls-2" d="M115.16,45.63c-1.87,1.87-4.83,4.83-6.97,3.87-.91-.36-1.23-1.09-1.23-1.96,0-1.28.73-2.83,1.5-3.96,1.37-1.91,4.01-4.79,3.51-5.15-.5-.36-2.32,1.05-3.05.59-.73-.41-.36-1.69.46-3.01.68-1.14,1.91-2.37,2.51-2.1s.36,1.41-.14,2.1c-.46.64-.87,1.19-.73,1.41.09.14,1.14-.32,1.92-.64.82-.41,1.91-.82,2.55-.32.59.46.37,1.91-.73,3.28-1.09,1.37-3.87,4.97-4.88,6.43-.96,1.41-1.46,2.42-.82,2.78,1.05.59,4.1-1.96,7.02-5.29,2.92-3.37,4.01-4.92,4.28-5.2.23-.32.91-.05.46.5-.46.55-3.83,4.74-5.65,6.65Z"/>
    <path class="cls-2" d="M138.41,29.49c-2.19,2.28-8.39,8.71-9.89,10.16-3.55,5.52-5.33,8.61-4.6,9.3.68.64,3.24-1.55,5.29-3.55,2.64-2.6,5.56-6.43,5.92-6.84.23-.27.55-.27.64-.09.05.09.05.27-.14.5-.46.55-3.24,4.06-5.29,6.24-1.41,1.5-5.38,5.47-7.11,4.74-.77-.32-1.23-.91-1.23-1.91,0-.59.18-1.37.55-2.28-.41.46-.77.82-1.05,1.09-1.37,1.41-3.42,3.51-4.92,2.87-.77-.32-1.46-1.32-1.46-2.78s.59-3.24,2.23-5.42c3.05-4.06,7.07-6.2,8.84-5.24.68.37,1,.91,1.14,1.5.5-.68,1.05-1.37,1.59-2.1,6.47-8.39,12.58-16.32,14.77-15.36,2.19,1-2.87,6.61-5.29,9.16ZM126.06,36.88c-1.05-.68-3.28,1.46-6.06,5.47-2.78,3.96-3.51,6.43-2.69,6.88.77.41,3.74-2.46,5.92-5.06.73-1.32,1.69-2.96,3.05-4.88.36-1.14.36-2.05-.23-2.42ZM131.43,35.19c-.27.41-.55.87-.87,1.28,1.73-1.59,4.74-4.56,7.38-7.7,3.51-4.24,4.88-6.84,4.15-7.2-.77-.41-5.24,5.38-10.67,13.63Z"/>
    <path class="cls-2" d="M135.58,50.14c-.78,0-1.19-.82-.91-1.82.23-1,1.09-1.78,1.87-1.78.73,0,1.14.82.91,1.82-.27,1-1.09,1.78-1.87,1.78Z"/>
  </g>
</svg>